<svg width="149" height="32" viewBox="0 0 149 32" fill="none" xmlns="http://www.w3.org/2000/svg">
<path d="M42.78 10.94V15.02H47.58V16.88H42.78V21.14H48.18V23H40.5V9.08H48.18V10.94H42.78ZM50.2283 17.44C50.2283 16.3333 50.4549 15.3533 50.9083 14.5C51.3749 13.6467 52.0016 12.9867 52.7883 12.52C53.5883 12.04 54.4749 11.8 55.4483 11.8C56.1683 11.8 56.8749 11.96 57.5683 12.28C58.2749 12.5867 58.8349 13 59.2483 13.52V8.2H61.5483V23H59.2483V21.34C58.8749 21.8733 58.3549 22.3133 57.6883 22.66C57.0349 23.0067 56.2816 23.18 55.4283 23.18C54.4683 23.18 53.5883 22.94 52.7883 22.46C52.0016 21.9667 51.3749 21.2867 50.9083 20.42C50.4549 19.54 50.2283 18.5467 50.2283 17.44ZM59.2483 17.48C59.2483 16.72 59.0883 16.06 58.7683 15.5C58.4616 14.94 58.0549 14.5133 57.5483 14.22C57.0416 13.9267 56.4949 13.78 55.9083 13.78C55.3216 13.78 54.7749 13.9267 54.2683 14.22C53.7616 14.5 53.3483 14.92 53.0283 15.48C52.7216 16.0267 52.5683 16.68 52.5683 17.44C52.5683 18.2 52.7216 18.8667 53.0283 19.44C53.3483 20.0133 53.7616 20.4533 54.2683 20.76C54.7883 21.0533 55.3349 21.2 55.9083 21.2C56.4949 21.2 57.0416 21.0533 57.5483 20.76C58.0549 20.4667 58.4616 20.04 58.7683 19.48C59.0883 18.9067 59.2483 18.24 59.2483 17.48ZM65.703 10.52C65.2896 10.52 64.943 10.38 64.663 10.1C64.383 9.82 64.243 9.47333 64.243 9.06C64.243 8.64667 64.383 8.3 64.663 8.02C64.943 7.74 65.2896 7.6 65.703 7.6C66.103 7.6 66.443 7.74 66.723 8.02C67.003 8.3 67.143 8.64667 67.143 9.06C67.143 9.47333 67.003 9.82 66.723 10.1C66.443 10.38 66.103 10.52 65.703 10.52ZM66.823 11.98V23H64.543V11.98H66.823ZM72.4764 13.84V19.94C72.4764 20.3533 72.5697 20.6533 72.7564 20.84C72.9564 21.0133 73.2897 21.1 73.7564 21.1H75.1564V23H73.3564C72.3297 23 71.5431 22.76 70.9964 22.28C70.4497 21.8 70.1764 21.02 70.1764 19.94V13.84H68.8764V11.98H70.1764V9.24H72.4764V11.98H75.1564V13.84H72.4764ZM92.1731 13.24C92.1731 13.9467 92.0065 14.6133 91.6731 15.24C91.3398 15.8667 90.8065 16.38 90.0731 16.78C89.3398 17.1667 88.3998 17.36 87.2531 17.36H84.7331V23H82.4531V9.1H87.2531C88.3198 9.1 89.2198 9.28667 89.9531 9.66C90.6998 10.02 91.2531 10.5133 91.6131 11.14C91.9865 11.7667 92.1731 12.4667 92.1731 13.24ZM87.2531 15.5C88.1198 15.5 88.7665 15.3067 89.1931 14.92C89.6198 14.52 89.8331 13.96 89.8331 13.24C89.8331 11.72 88.9731 10.96 87.2531 10.96H84.7331V15.5H87.2531ZM96.6277 13.58C96.961 13.02 97.401 12.5867 97.9477 12.28C98.5077 11.96 99.1677 11.8 99.9277 11.8V14.16H99.3477C98.4543 14.16 97.7743 14.3867 97.3077 14.84C96.8543 15.2933 96.6277 16.08 96.6277 17.2V23H94.3477V11.98H96.6277V13.58ZM106.803 23.18C105.763 23.18 104.823 22.9467 103.983 22.48C103.143 22 102.483 21.3333 102.003 20.48C101.523 19.6133 101.283 18.6133 101.283 17.48C101.283 16.36 101.53 15.3667 102.023 14.5C102.517 13.6333 103.19 12.9667 104.043 12.5C104.897 12.0333 105.85 11.8 106.903 11.8C107.957 11.8 108.91 12.0333 109.763 12.5C110.617 12.9667 111.29 13.6333 111.783 14.5C112.277 15.3667 112.523 16.36 112.523 17.48C112.523 18.6 112.27 19.5933 111.763 20.46C111.257 21.3267 110.563 22 109.683 22.48C108.817 22.9467 107.857 23.18 106.803 23.18ZM106.803 21.2C107.39 21.2 107.937 21.06 108.443 20.78C108.963 20.5 109.383 20.08 109.703 19.52C110.023 18.96 110.183 18.28 110.183 17.48C110.183 16.68 110.03 16.0067 109.723 15.46C109.417 14.9 109.01 14.48 108.503 14.2C107.997 13.92 107.45 13.78 106.863 13.78C106.277 13.78 105.73 13.92 105.223 14.2C104.73 14.48 104.337 14.9 104.043 15.46C103.75 16.0067 103.603 16.68 103.603 17.48C103.603 18.6667 103.903 19.5867 104.503 20.24C105.117 20.88 105.883 21.2 106.803 21.2ZM119.397 13.84H117.357V23H115.057V13.84H113.757V11.98H115.057V11.2C115.057 9.93333 115.391 9.01333 116.057 8.44C116.737 7.85333 117.797 7.56 119.237 7.56V9.46C118.544 9.46 118.057 9.59333 117.777 9.86C117.497 10.1133 117.357 10.56 117.357 11.2V11.98H119.397V13.84ZM122.578 10.52C122.165 10.52 121.818 10.38 121.538 10.1C121.258 9.82 121.118 9.47333 121.118 9.06C121.118 8.64667 121.258 8.3 121.538 8.02C121.818 7.74 122.165 7.6 122.578 7.6C122.978 7.6 123.318 7.74 123.598 8.02C123.878 8.3 124.018 8.64667 124.018 9.06C124.018 9.47333 123.878 9.82 123.598 10.1C123.318 10.38 122.978 10.52 122.578 10.52ZM123.698 11.98V23H121.418V11.98H123.698ZM128.971 8.2V23H126.691V8.2H128.971ZM142.065 17.22C142.065 17.6333 142.038 18.0067 141.985 18.34H133.565C133.632 19.22 133.958 19.9267 134.545 20.46C135.132 20.9933 135.852 21.26 136.705 21.26C137.932 21.26 138.798 20.7467 139.305 19.72H141.765C141.432 20.7333 140.825 21.5667 139.945 22.22C139.078 22.86 137.998 23.18 136.705 23.18C135.652 23.18 134.705 22.9467 133.865 22.48C133.038 22 132.385 21.3333 131.905 20.48C131.438 19.6133 131.205 18.6133 131.205 17.48C131.205 16.3467 131.432 15.3533 131.885 14.5C132.352 13.6333 132.998 12.9667 133.825 12.5C134.665 12.0333 135.625 11.8 136.705 11.8C137.745 11.8 138.672 12.0267 139.485 12.48C140.298 12.9333 140.932 13.5733 141.385 14.4C141.838 15.2133 142.065 16.1533 142.065 17.22ZM139.685 16.5C139.672 15.66 139.372 14.9867 138.785 14.48C138.198 13.9733 137.472 13.72 136.605 13.72C135.818 13.72 135.145 13.9733 134.585 14.48C134.025 14.9733 133.692 15.6467 133.585 16.5H139.685Z" fill="white"/>
<path d="M9.3335 22.684L15.2175 22.664L28.0602 9.944C28.5642 9.44 28.8415 8.77067 28.8415 8.05867C28.8415 7.34667 28.5642 6.67734 28.0602 6.17334L25.9455 4.05867C24.9375 3.05067 23.1788 3.056 22.1788 4.05467L9.3335 16.7773V22.684ZM24.0602 5.944L26.1788 8.05467L24.0495 10.164L21.9348 8.05067L24.0602 5.944ZM12.0002 17.8893L20.0402 9.92534L22.1548 12.04L14.1162 20.0013L12.0002 20.008V17.8893Z" fill="white"/>
<path d="M6.66667 28H25.3333C26.804 28 28 26.804 28 25.3333V13.776L25.3333 16.4427V25.3333H10.8773C10.8427 25.3333 10.8067 25.3467 10.772 25.3467C10.728 25.3467 10.684 25.3347 10.6387 25.3333H6.66667V6.66667H15.796L18.4627 4H6.66667C5.196 4 4 5.196 4 6.66667V25.3333C4 26.804 5.196 28 6.66667 28Z" fill="white"/>
</svg>
