<svg width="169" height="42" viewBox="0 0 169 42" fill="none" xmlns="http://www.w3.org/2000/svg">
<g clip-path="url(#clip0_29_5)">
<path fill-rule="evenodd" clip-rule="evenodd" d="M21.1183 22.9663C20.771 22.7406 20.4715 22.4487 20.2371 22.1073C20.0026 21.7658 19.8377 21.3815 19.7517 20.9764C19.6658 20.5712 19.6605 20.153 19.7361 19.7458C19.8118 19.3386 19.9669 18.9502 20.1926 18.603L23.6319 13.3155C23.854 12.9604 24.1446 12.6531 24.4867 12.4114C24.8289 12.1698 25.2157 11.9988 25.6247 11.9083C26.0336 11.8178 26.4565 11.8097 26.8687 11.8844C27.2808 11.9592 27.6739 12.1152 28.0251 12.3436C28.3763 12.5719 28.6784 12.8678 28.9139 13.2142C29.1495 13.5606 29.3137 13.9504 29.3969 14.3609C29.4802 14.7714 29.4808 15.1943 29.3988 15.6051C29.3168 16.0159 29.1538 16.4062 28.9193 16.7532L25.4816 22.0422C25.0255 22.7434 24.3096 23.2346 23.4913 23.4079C22.6731 23.5812 21.8194 23.4224 21.1183 22.9663ZM17.2674 23.2848C16.7382 22.2898 16.4853 21.1711 16.5349 20.0452C16.5846 18.9192 16.935 17.8272 17.5497 16.8825L20.9874 11.5951C21.4391 10.9007 22.0231 10.302 22.7061 9.8332C23.3891 9.36445 24.1578 9.03481 24.9682 8.86312C25.7786 8.69143 26.6149 8.68105 27.4294 8.83256C28.2438 8.98408 29.0204 9.29452 29.7149 9.74617C30.4093 10.1978 31.008 10.7818 31.4768 11.4649C31.9455 12.1479 32.2752 12.9166 32.4469 13.727C32.6186 14.5374 32.6289 15.3737 32.4774 16.1881C32.3259 17.0026 32.0155 17.7792 31.5638 18.4737L28.1261 23.7611C27.528 24.6816 26.6999 25.43 25.7238 25.9324C24.7477 26.4349 23.6574 26.6738 22.5607 26.6257C21.464 26.5776 20.3988 26.2441 19.4704 25.6582C18.5421 25.0723 17.7827 24.2542 17.2674 23.2848Z" fill="#002855"/>
<path fill-rule="evenodd" clip-rule="evenodd" d="M13.3156 29.1778C12.9683 28.9521 12.6688 28.6602 12.4343 28.3188C12.1999 27.9773 12.0349 27.593 11.949 27.1879C11.863 26.7827 11.8577 26.3645 11.9334 25.9573C12.009 25.5501 12.1642 25.1617 12.3899 24.8145L15.8292 19.527C16.0512 19.1719 16.3418 18.8646 16.684 18.6229C17.0261 18.3813 17.413 18.2103 17.8219 18.1198C18.2309 18.0293 18.6538 18.0212 19.0659 18.0959C19.4781 18.1707 19.8712 18.3267 20.2224 18.5551C20.5735 18.7834 20.8757 19.0793 21.1112 19.4257C21.3467 19.7721 21.5109 20.1619 21.5942 20.5724C21.6774 20.9829 21.6781 21.4058 21.5961 21.8166C21.5141 22.2274 21.3511 22.6177 21.1166 22.9647L17.6789 28.2537C17.2228 28.9549 16.5069 29.4461 15.6886 29.6194C14.8703 29.7927 14.0167 29.6339 13.3156 29.1778ZM9.4647 29.4963C8.93549 28.5013 8.68256 27.3826 8.7322 26.2567C8.78184 25.1307 9.13225 24.0387 9.74697 23.094L13.1847 17.8082C14.0966 16.4057 15.5284 15.4229 17.1649 15.076C17.9753 14.9042 18.8115 14.8937 19.6259 15.0452C20.4403 15.1966 21.2169 15.5069 21.9114 15.9585C22.6058 16.41 23.2045 16.9939 23.6733 17.6769C24.1421 18.3598 24.4718 19.1284 24.6436 19.9387C24.8153 20.7491 24.8258 21.5853 24.6744 22.3997C24.523 23.2141 24.2126 23.9907 23.7611 24.6852L20.3234 29.9726C19.7252 30.8931 18.8972 31.6415 17.9211 32.1439C16.945 32.6464 15.8547 32.8853 14.758 32.8372C13.6612 32.7891 12.596 32.4556 11.6677 31.8697C10.7393 31.2838 9.98 30.4657 9.4647 29.4963Z" fill="#002855"/>
<path fill-rule="evenodd" clip-rule="evenodd" d="M20.5 37.8462C30.0798 37.8462 37.8462 30.0798 37.8462 20.5C37.8462 10.9202 30.0798 3.15385 20.5 3.15385C10.9202 3.15385 3.15385 10.9202 3.15385 20.5C3.15385 30.0798 10.9202 37.8462 20.5 37.8462ZM20.5 41C31.8223 41 41 31.8223 41 20.5C41 9.17769 31.8223 0 20.5 0C9.17769 0 0 9.17769 0 20.5C0 31.8223 9.17769 41 20.5 41Z" fill="#002855"/>
</g>
<path d="M53.6361 34V8.54545H58.2473V30.1346H69.4582V34H53.6361ZM73.2615 34V14.9091H77.7608V34H73.2615ZM75.5236 12.1996C74.811 12.1996 74.1978 11.9634 73.6841 11.4911C73.1704 11.0105 72.9135 10.4347 72.9135 9.76349C72.9135 9.08404 73.1704 8.50817 73.6841 8.03586C74.1978 7.55528 74.811 7.31499 75.5236 7.31499C76.2445 7.31499 76.8576 7.55528 77.3631 8.03586C77.8768 8.50817 78.1337 9.08404 78.1337 9.76349C78.1337 10.4347 77.8768 11.0105 77.3631 11.4911C76.8576 11.9634 76.2445 12.1996 75.5236 12.1996ZM86.8868 22.8139V34H82.3875V14.9091H86.6879V18.1531H86.9116C87.3508 17.0842 88.0509 16.2348 89.0121 15.6051C89.9816 14.9754 91.1789 14.6605 92.6041 14.6605C93.9216 14.6605 95.0692 14.9422 96.0469 15.5057C97.033 16.0691 97.7953 16.8853 98.3339 17.9542C98.8807 19.0231 99.15 20.3198 99.1417 21.8445V34H94.6424V22.5405C94.6424 21.2644 94.311 20.266 93.6481 19.5451C92.9935 18.8242 92.0862 18.4638 90.9262 18.4638C90.139 18.4638 89.4388 18.6378 88.8257 18.9858C88.2208 19.3255 87.7444 19.8185 87.3964 20.4648C87.0566 21.1112 86.8868 21.8942 86.8868 22.8139ZM107.817 28.0092L107.805 22.5778H108.526L115.386 14.9091H120.644L112.205 24.3054H111.272L107.817 28.0092ZM103.716 34V8.54545H108.215V34H103.716ZM115.697 34L109.483 25.3121L112.515 22.1428L121.079 34H115.697ZM139.887 8.54545H144.498V25.1754C144.498 26.9983 144.067 28.6017 143.206 29.9854C142.352 31.3692 141.151 32.4505 139.601 33.2294C138.052 34 136.241 34.3853 134.17 34.3853C132.09 34.3853 130.275 34 128.726 33.2294C127.176 32.4505 125.975 31.3692 125.121 29.9854C124.268 28.6017 123.841 26.9983 123.841 25.1754V8.54545H128.452V24.7901C128.452 25.8507 128.684 26.7953 129.148 27.6239C129.621 28.4525 130.284 29.103 131.137 29.5753C131.99 30.0393 133.001 30.2713 134.17 30.2713C135.338 30.2713 136.349 30.0393 137.202 29.5753C138.064 29.103 138.727 28.4525 139.191 27.6239C139.655 26.7953 139.887 25.8507 139.887 24.7901V8.54545ZM149.311 41.1591V14.9091H153.736V18.0661H153.997C154.229 17.602 154.556 17.109 154.979 16.587C155.402 16.0567 155.973 15.6051 156.694 15.2322C157.415 14.8511 158.335 14.6605 159.453 14.6605C160.928 14.6605 162.258 15.0375 163.443 15.7915C164.636 16.5373 165.581 17.6435 166.277 19.1101C166.981 20.5684 167.333 22.3582 167.333 24.4794C167.333 26.5758 166.989 28.3572 166.302 29.8239C165.614 31.2905 164.678 32.4091 163.493 33.1797C162.308 33.9503 160.966 34.3356 159.466 34.3356C158.372 34.3356 157.465 34.1533 156.744 33.7887C156.023 33.4241 155.443 32.985 155.004 32.4712C154.573 31.9492 154.237 31.4562 153.997 30.9922H153.811V41.1591H149.311ZM153.724 24.4545C153.724 25.6892 153.898 26.7705 154.246 27.6985C154.602 28.6265 155.111 29.3516 155.774 29.8736C156.446 30.3873 157.258 30.6442 158.21 30.6442C159.205 30.6442 160.038 30.379 160.709 29.8487C161.38 29.3101 161.885 28.5768 162.225 27.6488C162.573 26.7125 162.747 25.6477 162.747 24.4545C162.747 23.2696 162.577 22.2173 162.237 21.2976C161.898 20.3778 161.392 19.657 160.721 19.1349C160.05 18.6129 159.213 18.3519 158.21 18.3519C157.249 18.3519 156.433 18.6046 155.762 19.1101C155.091 19.6155 154.581 20.324 154.233 21.2354C153.893 22.1469 153.724 23.2199 153.724 24.4545Z" fill="#002855"/>
<defs>
<clipPath id="clip0_29_5">
<rect width="41" height="41" fill="white"/>
</clipPath>
</defs>
</svg>
