<svg width="230" height="32" viewBox="0 0 230 32" fill="none" xmlns="http://www.w3.org/2000/svg">
<path d="M40.94 15.86C41.6867 15.9933 42.32 16.3867 42.84 17.04C43.36 17.6933 43.62 18.4333 43.62 19.26C43.62 19.9667 43.4333 20.6067 43.06 21.18C42.7 21.74 42.1733 22.1867 41.48 22.52C40.7867 22.84 39.98 23 39.06 23H33.5V9.1H38.8C39.7467 9.1 40.56 9.26 41.24 9.58C41.92 9.9 42.4333 10.3333 42.78 10.88C43.1267 11.4133 43.3 12.0133 43.3 12.68C43.3 13.48 43.0867 14.1467 42.66 14.68C42.2333 15.2133 41.66 15.6067 40.94 15.86ZM35.78 14.94H38.6C39.3467 14.94 39.9267 14.7733 40.34 14.44C40.7667 14.0933 40.98 13.6 40.98 12.96C40.98 12.3333 40.7667 11.8467 40.34 11.5C39.9267 11.14 39.3467 10.96 38.6 10.96H35.78V14.94ZM38.86 21.14C39.6333 21.14 40.24 20.9533 40.68 20.58C41.12 20.2067 41.34 19.6867 41.34 19.02C41.34 18.34 41.1067 17.8 40.64 17.4C40.1733 17 39.5533 16.8 38.78 16.8H35.78V21.14H38.86ZM45.3377 17.44C45.3377 16.3333 45.5643 15.3533 46.0177 14.5C46.4843 13.6467 47.111 12.9867 47.8977 12.52C48.6977 12.04 49.5777 11.8 50.5377 11.8C51.4043 11.8 52.1577 11.9733 52.7977 12.32C53.451 12.6533 53.971 13.0733 54.3577 13.58V11.98H56.6577V23H54.3577V21.36C53.971 21.88 53.4443 22.3133 52.7777 22.66C52.111 23.0067 51.351 23.18 50.4977 23.18C49.551 23.18 48.6843 22.94 47.8977 22.46C47.111 21.9667 46.4843 21.2867 46.0177 20.42C45.5643 19.54 45.3377 18.5467 45.3377 17.44ZM54.3577 17.48C54.3577 16.72 54.1977 16.06 53.8777 15.5C53.571 14.94 53.1643 14.5133 52.6577 14.22C52.151 13.9267 51.6043 13.78 51.0177 13.78C50.431 13.78 49.8843 13.9267 49.3777 14.22C48.871 14.5 48.4577 14.92 48.1377 15.48C47.831 16.0267 47.6777 16.68 47.6777 17.44C47.6777 18.2 47.831 18.8667 48.1377 19.44C48.4577 20.0133 48.871 20.4533 49.3777 20.76C49.8977 21.0533 50.4443 21.2 51.0177 21.2C51.6043 21.2 52.151 21.0533 52.6577 20.76C53.1643 20.4667 53.571 20.04 53.8777 19.48C54.1977 18.9067 54.3577 18.24 54.3577 17.48ZM58.8923 17.48C58.8923 16.3467 59.119 15.3533 59.5723 14.5C60.039 13.6333 60.679 12.9667 61.4923 12.5C62.3057 12.0333 63.239 11.8 64.2923 11.8C65.6257 11.8 66.7257 12.12 67.5923 12.76C68.4723 13.3867 69.0657 14.2867 69.3723 15.46H66.9123C66.7123 14.9133 66.3923 14.4867 65.9523 14.18C65.5123 13.8733 64.959 13.72 64.2923 13.72C63.359 13.72 62.6123 14.0533 62.0523 14.72C61.5057 15.3733 61.2323 16.2933 61.2323 17.48C61.2323 18.6667 61.5057 19.5933 62.0523 20.26C62.6123 20.9267 63.359 21.26 64.2923 21.26C65.6123 21.26 66.4857 20.68 66.9123 19.52H69.3723C69.0523 20.64 68.4523 21.5333 67.5723 22.2C66.6923 22.8533 65.599 23.18 64.2923 23.18C63.239 23.18 62.3057 22.9467 61.4923 22.48C60.679 22 60.039 21.3333 59.5723 20.48C59.119 19.6133 58.8923 18.6133 58.8923 17.48ZM76.0045 17.5L81.0845 23H78.0045L73.9245 18.26V23H71.6445V8.2H73.9245V16.8L77.9245 11.98H81.0845L76.0045 17.5ZM90.5741 13.84V19.94C90.5741 20.3533 90.6674 20.6533 90.8541 20.84C91.0541 21.0133 91.3874 21.1 91.8541 21.1H93.2541V23H91.4541C90.4274 23 89.6407 22.76 89.0941 22.28C88.5474 21.8 88.2741 21.02 88.2741 19.94V13.84H86.9741V11.98H88.2741V9.24H90.5741V11.98H93.2541V13.84H90.5741ZM100.135 23.18C99.0955 23.18 98.1555 22.9467 97.3155 22.48C96.4755 22 95.8155 21.3333 95.3355 20.48C94.8555 19.6133 94.6155 18.6133 94.6155 17.48C94.6155 16.36 94.8621 15.3667 95.3555 14.5C95.8488 13.6333 96.5221 12.9667 97.3755 12.5C98.2288 12.0333 99.1821 11.8 100.235 11.8C101.289 11.8 102.242 12.0333 103.095 12.5C103.949 12.9667 104.622 13.6333 105.115 14.5C105.609 15.3667 105.855 16.36 105.855 17.48C105.855 18.6 105.602 19.5933 105.095 20.46C104.589 21.3267 103.895 22 103.015 22.48C102.149 22.9467 101.189 23.18 100.135 23.18ZM100.135 21.2C100.722 21.2 101.269 21.06 101.775 20.78C102.295 20.5 102.715 20.08 103.035 19.52C103.355 18.96 103.515 18.28 103.515 17.48C103.515 16.68 103.362 16.0067 103.055 15.46C102.749 14.9 102.342 14.48 101.835 14.2C101.329 13.92 100.782 13.78 100.195 13.78C99.6088 13.78 99.0621 13.92 98.5555 14.2C98.0621 14.48 97.6688 14.9 97.3755 15.46C97.0821 16.0067 96.9355 16.68 96.9355 17.48C96.9355 18.6667 97.2355 19.5867 97.8355 20.24C98.4488 20.88 99.2155 21.2 100.135 21.2ZM117.845 9.1C119.325 9.1 120.618 9.38667 121.725 9.96C122.845 10.52 123.705 11.3333 124.305 12.4C124.918 13.4533 125.225 14.6867 125.225 16.1C125.225 17.5133 124.918 18.74 124.305 19.78C123.705 20.82 122.845 21.62 121.725 22.18C120.618 22.7267 119.325 23 117.845 23H113.305V9.1H117.845ZM117.845 21.14C119.471 21.14 120.718 20.7 121.585 19.82C122.451 18.94 122.885 17.7 122.885 16.1C122.885 14.4867 122.451 13.2267 121.585 12.32C120.718 11.4133 119.471 10.96 117.845 10.96H115.585V21.14H117.845ZM126.724 17.44C126.724 16.3333 126.951 15.3533 127.404 14.5C127.871 13.6467 128.498 12.9867 129.284 12.52C130.084 12.04 130.964 11.8 131.924 11.8C132.791 11.8 133.544 11.9733 134.184 12.32C134.838 12.6533 135.358 13.0733 135.744 13.58V11.98H138.044V23H135.744V21.36C135.358 21.88 134.831 22.3133 134.164 22.66C133.498 23.0067 132.738 23.18 131.884 23.18C130.938 23.18 130.071 22.94 129.284 22.46C128.498 21.9667 127.871 21.2867 127.404 20.42C126.951 19.54 126.724 18.5467 126.724 17.44ZM135.744 17.48C135.744 16.72 135.584 16.06 135.264 15.5C134.958 14.94 134.551 14.5133 134.044 14.22C133.538 13.9267 132.991 13.78 132.404 13.78C131.818 13.78 131.271 13.9267 130.764 14.22C130.258 14.5 129.844 14.92 129.524 15.48C129.218 16.0267 129.064 16.68 129.064 17.44C129.064 18.2 129.218 18.8667 129.524 19.44C129.844 20.0133 130.258 20.4533 130.764 20.76C131.284 21.0533 131.831 21.2 132.404 21.2C132.991 21.2 133.538 21.0533 134.044 20.76C134.551 20.4667 134.958 20.04 135.264 19.48C135.584 18.9067 135.744 18.24 135.744 17.48ZM145.039 23.18C144.172 23.18 143.392 23.0267 142.699 22.72C142.019 22.4 141.479 21.9733 141.079 21.44C140.679 20.8933 140.466 20.2867 140.439 19.62H142.799C142.839 20.0867 143.059 20.48 143.459 20.8C143.872 21.1067 144.386 21.26 144.999 21.26C145.639 21.26 146.132 21.14 146.479 20.9C146.839 20.6467 147.019 20.3267 147.019 19.94C147.019 19.5267 146.819 19.22 146.419 19.02C146.032 18.82 145.412 18.6 144.559 18.36C143.732 18.1333 143.059 17.9133 142.539 17.7C142.019 17.4867 141.566 17.16 141.179 16.72C140.806 16.28 140.619 15.7 140.619 14.98C140.619 14.3933 140.792 13.86 141.139 13.38C141.486 12.8867 141.979 12.5 142.619 12.22C143.272 11.94 144.019 11.8 144.859 11.8C146.112 11.8 147.119 12.12 147.879 12.76C148.652 13.3867 149.066 14.2467 149.119 15.34H146.839C146.799 14.8467 146.599 14.4533 146.239 14.16C145.879 13.8667 145.392 13.72 144.779 13.72C144.179 13.72 143.719 13.8333 143.399 14.06C143.079 14.2867 142.919 14.5867 142.919 14.96C142.919 15.2533 143.026 15.5 143.239 15.7C143.452 15.9 143.712 16.06 144.019 16.18C144.326 16.2867 144.779 16.4267 145.379 16.6C146.179 16.8133 146.832 17.0333 147.339 17.26C147.859 17.4733 148.306 17.7933 148.679 18.22C149.052 18.6467 149.246 19.2133 149.259 19.92C149.259 20.5467 149.086 21.1067 148.739 21.6C148.392 22.0933 147.899 22.48 147.259 22.76C146.632 23.04 145.892 23.18 145.039 23.18ZM157.423 11.8C158.263 11.8 159.009 11.98 159.663 12.34C160.329 12.7 160.849 13.2333 161.223 13.94C161.609 14.6467 161.803 15.5 161.803 16.5V23H159.543V16.84C159.543 15.8533 159.296 15.1 158.803 14.58C158.309 14.0467 157.636 13.78 156.783 13.78C155.929 13.78 155.249 14.0467 154.743 14.58C154.249 15.1 154.003 15.8533 154.003 16.84V23H151.723V8.2H154.003V13.26C154.389 12.7933 154.876 12.4333 155.463 12.18C156.063 11.9267 156.716 11.8 157.423 11.8ZM166.991 13.62C167.378 13.0867 167.904 12.6533 168.571 12.32C169.251 11.9733 170.004 11.8 170.831 11.8C171.804 11.8 172.684 12.0333 173.471 12.5C174.258 12.9667 174.878 13.6333 175.331 14.5C175.784 15.3533 176.011 16.3333 176.011 17.44C176.011 18.5467 175.784 19.54 175.331 20.42C174.878 21.2867 174.251 21.9667 173.451 22.46C172.664 22.94 171.791 23.18 170.831 23.18C169.978 23.18 169.218 23.0133 168.551 22.68C167.898 22.3467 167.378 21.92 166.991 21.4V23H164.711V8.2H166.991V13.62ZM173.691 17.44C173.691 16.68 173.531 16.0267 173.211 15.48C172.904 14.92 172.491 14.5 171.971 14.22C171.464 13.9267 170.918 13.78 170.331 13.78C169.758 13.78 169.211 13.9267 168.691 14.22C168.184 14.5133 167.771 14.94 167.451 15.5C167.144 16.06 166.991 16.72 166.991 17.48C166.991 18.24 167.144 18.9067 167.451 19.48C167.771 20.04 168.184 20.4667 168.691 20.76C169.211 21.0533 169.758 21.2 170.331 21.2C170.918 21.2 171.464 21.0533 171.971 20.76C172.491 20.4533 172.904 20.0133 173.211 19.44C173.531 18.8667 173.691 18.2 173.691 17.44ZM183.046 23.18C182.006 23.18 181.066 22.9467 180.226 22.48C179.386 22 178.726 21.3333 178.246 20.48C177.766 19.6133 177.526 18.6133 177.526 17.48C177.526 16.36 177.772 15.3667 178.266 14.5C178.759 13.6333 179.432 12.9667 180.286 12.5C181.139 12.0333 182.092 11.8 183.146 11.8C184.199 11.8 185.152 12.0333 186.006 12.5C186.859 12.9667 187.532 13.6333 188.026 14.5C188.519 15.3667 188.766 16.36 188.766 17.48C188.766 18.6 188.512 19.5933 188.006 20.46C187.499 21.3267 186.806 22 185.926 22.48C185.059 22.9467 184.099 23.18 183.046 23.18ZM183.046 21.2C183.632 21.2 184.179 21.06 184.686 20.78C185.206 20.5 185.626 20.08 185.946 19.52C186.266 18.96 186.426 18.28 186.426 17.48C186.426 16.68 186.272 16.0067 185.966 15.46C185.659 14.9 185.252 14.48 184.746 14.2C184.239 13.92 183.692 13.78 183.106 13.78C182.519 13.78 181.972 13.92 181.466 14.2C180.972 14.48 180.579 14.9 180.286 15.46C179.992 16.0067 179.846 16.68 179.846 17.48C179.846 18.6667 180.146 19.5867 180.746 20.24C181.359 20.88 182.126 21.2 183.046 21.2ZM190.26 17.44C190.26 16.3333 190.486 15.3533 190.94 14.5C191.406 13.6467 192.033 12.9867 192.82 12.52C193.62 12.04 194.5 11.8 195.46 11.8C196.326 11.8 197.08 11.9733 197.72 12.32C198.373 12.6533 198.893 13.0733 199.28 13.58V11.98H201.58V23H199.28V21.36C198.893 21.88 198.366 22.3133 197.7 22.66C197.033 23.0067 196.273 23.18 195.42 23.18C194.473 23.18 193.606 22.94 192.82 22.46C192.033 21.9667 191.406 21.2867 190.94 20.42C190.486 19.54 190.26 18.5467 190.26 17.44ZM199.28 17.48C199.28 16.72 199.12 16.06 198.8 15.5C198.493 14.94 198.086 14.5133 197.58 14.22C197.073 13.9267 196.526 13.78 195.94 13.78C195.353 13.78 194.806 13.9267 194.3 14.22C193.793 14.5 193.38 14.92 193.06 15.48C192.753 16.0267 192.6 16.68 192.6 17.44C192.6 18.2 192.753 18.8667 193.06 19.44C193.38 20.0133 193.793 20.4533 194.3 20.76C194.82 21.0533 195.366 21.2 195.94 21.2C196.526 21.2 197.073 21.0533 197.58 20.76C198.086 20.4667 198.493 20.04 198.8 19.48C199.12 18.9067 199.28 18.24 199.28 17.48ZM206.854 13.58C207.188 13.02 207.628 12.5867 208.174 12.28C208.734 11.96 209.394 11.8 210.154 11.8V14.16H209.574C208.681 14.16 208.001 14.3867 207.534 14.84C207.081 15.2933 206.854 16.08 206.854 17.2V23H204.574V11.98H206.854V13.58ZM211.49 17.44C211.49 16.3333 211.717 15.3533 212.17 14.5C212.637 13.6467 213.263 12.9867 214.05 12.52C214.85 12.04 215.737 11.8 216.71 11.8C217.43 11.8 218.137 11.96 218.83 12.28C219.537 12.5867 220.097 13 220.51 13.52V8.2H222.81V23H220.51V21.34C220.137 21.8733 219.617 22.3133 218.95 22.66C218.297 23.0067 217.543 23.18 216.69 23.18C215.73 23.18 214.85 22.94 214.05 22.46C213.263 21.9667 212.637 21.2867 212.17 20.42C211.717 19.54 211.49 18.5467 211.49 17.44ZM220.51 17.48C220.51 16.72 220.35 16.06 220.03 15.5C219.723 14.94 219.317 14.5133 218.81 14.22C218.303 13.9267 217.757 13.78 217.17 13.78C216.583 13.78 216.037 13.9267 215.53 14.22C215.023 14.5 214.61 14.92 214.29 15.48C213.983 16.0267 213.83 16.68 213.83 17.44C213.83 18.2 213.983 18.8667 214.29 19.44C214.61 20.0133 215.023 20.4533 215.53 20.76C216.05 21.0533 216.597 21.2 217.17 21.2C217.757 21.2 218.303 21.0533 218.81 20.76C219.317 20.4667 219.723 20.04 220.03 19.48C220.35 18.9067 220.51 18.24 220.51 17.48Z" fill="#002855"/>
<path d="M10.4335 17.3333L17.9002 24.8L16.0002 26.6667L5.3335 16L16.0002 5.33333L17.9002 7.2L10.4335 14.6667H26.6668V17.3333H10.4335Z" fill="#002855"/>
</svg>
