<svg width="32" height="32" viewBox="0 0 32 32" fill="none" xmlns="http://www.w3.org/2000/svg">
<g opacity="0.2">
<path d="M15.6 12.4C15.6 13.6731 15.0943 14.894 14.1941 15.7942C13.2939 16.6943 12.073 17.2 10.8 17.2C9.52696 17.2 8.30606 16.6943 7.40589 15.7942C6.50571 14.894 6 13.6731 6 12.4C6 11.127 6.50571 9.9061 7.40589 9.00592C8.30606 8.10575 9.52696 7.60004 10.8 7.60004C12.073 7.60004 13.2939 8.10575 14.1941 9.00592C15.0943 9.9061 15.6 11.127 15.6 12.4Z" fill="#002855"/>
<path fill-rule="evenodd" clip-rule="evenodd" d="M10.8 14C11.2243 14 11.6313 13.8315 11.9314 13.5314C12.2314 13.2313 12.4 12.8244 12.4 12.4C12.4 11.9757 12.2314 11.5687 11.9314 11.2687C11.6313 10.9686 11.2243 10.8 10.8 10.8C10.3757 10.8 9.96869 10.9686 9.66863 11.2687C9.36857 11.5687 9.2 11.9757 9.2 12.4C9.2 12.8244 9.36857 13.2313 9.66863 13.5314C9.96869 13.8315 10.3757 14 10.8 14ZM10.8 17.2C11.4303 17.2 12.0545 17.0759 12.6369 16.8347C13.2192 16.5934 13.7484 16.2399 14.1941 15.7942C14.6398 15.3484 14.9934 14.8193 15.2346 14.2369C15.4758 13.6546 15.6 13.0304 15.6 12.4C15.6 11.7697 15.4758 11.1455 15.2346 10.5632C14.9934 9.98079 14.6398 9.45165 14.1941 9.00592C13.7484 8.5602 13.2192 8.20664 12.6369 7.96542C12.0545 7.72419 11.4303 7.60004 10.8 7.60004C9.52696 7.60004 8.30606 8.10575 7.40589 9.00592C6.50571 9.9061 6 11.127 6 12.4C6 13.6731 6.50571 14.894 7.40589 15.7942C8.30606 16.6943 9.52696 17.2 10.8 17.2Z" fill="#002855"/>
<path fill-rule="evenodd" clip-rule="evenodd" d="M10.8798 18.4C10.2433 18.4 9.63282 18.6529 9.18273 19.103C8.73264 19.553 8.47979 20.1635 8.47979 20.8V23.2C8.47979 23.6244 8.31121 24.0313 8.01116 24.3314C7.7111 24.6314 7.30413 24.8 6.87979 24.8C6.45544 24.8 6.04847 24.6314 5.74841 24.3314C5.44836 24.0313 5.27979 23.6244 5.27979 23.2V20.8C5.27979 19.3148 5.86978 17.8904 6.91999 16.8402C7.97019 15.79 9.39457 15.2 10.8798 15.2C12.365 15.2 13.7894 15.79 14.8396 16.8402C15.8898 17.8904 16.4798 19.3148 16.4798 20.8V21.6C16.4798 22.0244 16.3112 22.4313 16.0112 22.7314C15.7111 23.0314 15.3041 23.2 14.8798 23.2C14.4554 23.2 14.0485 23.0314 13.7484 22.7314C13.4484 22.4313 13.2798 22.0244 13.2798 21.6V20.8C13.2798 20.1635 13.0269 19.553 12.5768 19.103C12.1268 18.6529 11.5163 18.4 10.8798 18.4Z" fill="#002855"/>
<path d="M20.3999 12.4C20.3999 13.6731 20.9056 14.894 21.8058 15.7942C22.706 16.6943 23.9269 17.2 25.1999 17.2C26.4729 17.2 27.6938 16.6943 28.594 15.7942C29.4942 14.894 29.9999 13.6731 29.9999 12.4C29.9999 11.127 29.4942 9.9061 28.594 9.00592C27.6938 8.10575 26.4729 7.60004 25.1999 7.60004C23.9269 7.60004 22.706 8.10575 21.8058 9.00592C20.9056 9.9061 20.3999 11.127 20.3999 12.4Z" fill="#002855"/>
<path fill-rule="evenodd" clip-rule="evenodd" d="M25.1999 14C24.7756 14 24.3686 13.8315 24.0685 13.5314C23.7685 13.2313 23.5999 12.8244 23.5999 12.4C23.5999 11.9757 23.7685 11.5687 24.0685 11.2687C24.3686 10.9686 24.7756 10.8 25.1999 10.8C25.6242 10.8 26.0312 10.9686 26.3313 11.2687C26.6313 11.5687 26.7999 11.9757 26.7999 12.4C26.7999 12.8244 26.6313 13.2313 26.3313 13.5314C26.0312 13.8315 25.6242 14 25.1999 14ZM25.1999 17.2C24.5696 17.2 23.9454 17.0759 23.363 16.8347C22.7807 16.5934 22.2515 16.2399 21.8058 15.7942C21.3601 15.3484 21.0065 14.8193 20.7653 14.2369C20.5241 13.6546 20.3999 13.0304 20.3999 12.4C20.3999 11.7697 20.5241 11.1455 20.7653 10.5632C21.0065 9.98079 21.3601 9.45165 21.8058 9.00592C22.2515 8.5602 22.7807 8.20664 23.363 7.96542C23.9454 7.72419 24.5696 7.60004 25.1999 7.60004C26.4729 7.60004 27.6938 8.10575 28.594 9.00592C29.4942 9.9061 29.9999 11.127 29.9999 12.4C29.9999 13.6731 29.4942 14.894 28.594 15.7942C27.6938 16.6943 26.4729 17.2 25.1999 17.2Z" fill="#002855"/>
<path fill-rule="evenodd" clip-rule="evenodd" d="M25.12 18.4C25.7565 18.4 26.367 18.6529 26.8171 19.103C27.2672 19.553 27.52 20.1635 27.52 20.8V23.2C27.52 23.6244 27.6886 24.0313 27.9886 24.3314C28.2887 24.6314 28.6957 24.8 29.12 24.8C29.5444 24.8 29.9513 24.6314 30.2514 24.3314C30.5514 24.0313 30.72 23.6244 30.72 23.2V20.8C30.72 19.3148 30.13 17.8904 29.0798 16.8402C28.0296 15.79 26.6052 15.2 25.12 15.2C23.6348 15.2 22.2104 15.79 21.1602 16.8402C20.11 17.8904 19.52 19.3148 19.52 20.8V21.6C19.52 22.0244 19.6886 22.4313 19.9886 22.7314C20.2887 23.0314 20.6957 23.2 21.12 23.2C21.5444 23.2 21.9513 23.0314 22.2514 22.7314C22.5514 22.4313 22.72 22.0244 22.72 21.6V20.8C22.72 20.1635 22.9729 19.553 23.423 19.103C23.8731 18.6529 24.4835 18.4 25.12 18.4Z" fill="#002855"/>
<path fill-rule="evenodd" clip-rule="evenodd" d="M18.08 22.8C17.4435 22.8 16.833 23.0529 16.3829 23.503C15.9328 23.9531 15.68 24.5635 15.68 25.2V27.6C15.68 28.0244 15.5114 28.4314 15.2114 28.7314C14.9113 29.0315 14.5043 29.2 14.08 29.2C13.6556 29.2 13.2487 29.0315 12.9486 28.7314C12.6486 28.4314 12.48 28.0244 12.48 27.6V25.2C12.48 23.7148 13.07 22.2904 14.1202 21.2402C15.1704 20.19 16.5948 19.6 18.08 19.6C19.5652 19.6 20.9896 20.19 22.0398 21.2402C23.09 22.2904 23.68 23.7148 23.68 25.2V27.6C23.68 28.0244 23.5114 28.4314 23.2114 28.7314C22.9113 29.0315 22.5043 29.2 22.08 29.2C21.6556 29.2 21.2487 29.0315 20.9486 28.7314C20.6486 28.4314 20.48 28.0244 20.48 27.6V25.2C20.48 24.5635 20.2271 23.9531 19.777 23.503C19.327 23.0529 18.7165 22.8 18.08 22.8Z" fill="#002855"/>
<path d="M22.7997 16.8001C22.7997 18.0731 22.294 19.294 21.3938 20.1942C20.4936 21.0943 19.2727 21.6001 17.9997 21.6001C16.7267 21.6001 15.5058 21.0943 14.6056 20.1942C13.7054 19.294 13.1997 18.0731 13.1997 16.8001C13.1997 15.527 13.7054 14.3061 14.6056 13.4059C15.5058 12.5058 16.7267 12.0001 17.9997 12.0001C19.2727 12.0001 20.4936 12.5058 21.3938 13.4059C22.294 14.3061 22.7997 15.527 22.7997 16.8001Z" fill="#002855"/>
<path fill-rule="evenodd" clip-rule="evenodd" d="M17.9997 18.4001C18.4241 18.4001 18.831 18.2315 19.1311 17.9314C19.4311 17.6314 19.5997 17.2244 19.5997 16.8001C19.5997 16.3757 19.4311 15.9687 19.1311 15.6687C18.831 15.3686 18.4241 15.2001 17.9997 15.2001C17.5754 15.2001 17.1684 15.3686 16.8683 15.6687C16.5683 15.9687 16.3997 16.3757 16.3997 16.8001C16.3997 17.2244 16.5683 17.6314 16.8683 17.9314C17.1684 18.2315 17.5754 18.4001 17.9997 18.4001ZM17.9997 21.6001C19.2727 21.6001 20.4936 21.0943 21.3938 20.1942C22.294 19.294 22.7997 18.0731 22.7997 16.8001C22.7997 15.527 22.294 14.3061 21.3938 13.4059C20.4936 12.5058 19.2727 12.0001 17.9997 12.0001C16.7267 12.0001 15.5058 12.5058 14.6056 13.4059C13.7054 14.3061 13.1997 15.527 13.1997 16.8001C13.1997 18.0731 13.7054 19.294 14.6056 20.1942C15.5058 21.0943 16.7267 21.6001 17.9997 21.6001Z" fill="#002855"/>
<path d="M6.7998 18.4H14.7998V24.8H6.7998V18.4ZM21.1998 18.4H29.1998V24.8H21.1998V18.4Z" fill="#002855"/>
<path d="M14.8 21.6H21.2L22 29.2H14L14.8 21.6Z" fill="#002855"/>
</g>
<path fill-rule="evenodd" clip-rule="evenodd" d="M7.99971 14.4C8.8484 14.4 9.66233 14.0629 10.2624 13.4628C10.8626 12.8626 11.1997 12.0487 11.1997 11.2C11.1997 10.3513 10.8626 9.5374 10.2624 8.93728C9.66233 8.33717 8.8484 8.00002 7.99971 8.00002C7.15101 8.00002 6.33708 8.33717 5.73697 8.93728C5.13685 9.5374 4.79971 10.3513 4.79971 11.2C4.79971 12.0487 5.13685 12.8626 5.73697 13.4628C6.33708 14.0629 7.15101 14.4 7.99971 14.4ZM7.99971 16C8.63005 16 9.25422 15.8759 9.83659 15.6346C10.419 15.3934 10.9481 15.0399 11.3938 14.5941C11.8395 14.1484 12.1931 13.6193 12.4343 13.0369C12.6756 12.4545 12.7997 11.8304 12.7997 11.2C12.7997 10.5697 12.6756 9.94551 12.4343 9.36314C12.1931 8.78078 11.8395 8.25163 11.3938 7.80591C10.9481 7.36019 10.419 7.00663 9.83659 6.7654C9.25422 6.52418 8.63005 6.40002 7.99971 6.40002C6.72667 6.40002 5.50577 6.90574 4.60559 7.80591C3.70542 8.70609 3.19971 9.92699 3.19971 11.2C3.19971 12.4731 3.70542 13.694 4.60559 14.5941C5.50577 15.4943 6.72667 16 7.99971 16Z" fill="#002855"/>
<path fill-rule="evenodd" clip-rule="evenodd" d="M6.1663 14.2336C6.2408 14.308 6.29991 14.3962 6.34024 14.4934C6.38057 14.5906 6.40133 14.6948 6.40133 14.8C6.40133 14.9053 6.38057 15.0095 6.34024 15.1067C6.29991 15.2039 6.2408 15.2921 6.1663 15.3664L5.6255 15.9056C4.58476 16.9467 4.00004 18.3584 3.9999 19.8304V22.8C3.9999 23.0122 3.91562 23.2157 3.76559 23.3657C3.61556 23.5158 3.41208 23.6 3.1999 23.6C2.98773 23.6 2.78425 23.5158 2.63422 23.3657C2.48419 23.2157 2.3999 23.0122 2.3999 22.8V19.8304C2.40013 17.9341 3.15348 16.1155 4.4943 14.7744L5.0335 14.2336C5.10782 14.1591 5.1961 14.1 5.29329 14.0597C5.39048 14.0194 5.49467 13.9986 5.5999 13.9986C5.70513 13.9986 5.80932 14.0194 5.90652 14.0597C6.00371 14.1 6.09199 14.1591 6.1663 14.2336ZM25.0335 13.7536C24.959 13.828 24.8999 13.9162 24.8596 14.0134C24.8192 14.1106 24.7985 14.2148 24.7985 14.32C24.7985 14.4253 24.8192 14.5295 24.8596 14.6267C24.8999 14.7239 24.959 14.8121 25.0335 14.8864L25.5743 15.4256C26.615 16.4667 27.1998 17.8784 27.1999 19.3504V22.8C27.1999 23.0122 27.2842 23.2157 27.4342 23.3657C27.5842 23.5158 27.7877 23.6 27.9999 23.6C28.2121 23.6 28.4156 23.5158 28.5656 23.3657C28.7156 23.2157 28.7999 23.0122 28.7999 22.8V19.3504C28.7997 17.4541 28.0463 15.6355 26.7055 14.2944L26.1663 13.7536C26.092 13.6791 26.0037 13.62 25.9065 13.5797C25.8093 13.5394 25.7051 13.5186 25.5999 13.5186C25.4947 13.5186 25.3905 13.5394 25.2933 13.5797C25.1961 13.62 25.1078 13.6791 25.0335 13.7536Z" fill="#002855"/>
<path fill-rule="evenodd" clip-rule="evenodd" d="M22.4001 14.4C21.5514 14.4 20.7375 14.0629 20.1374 13.4628C19.5372 12.8626 19.2001 12.0487 19.2001 11.2C19.2001 10.3513 19.5372 9.5374 20.1374 8.93728C20.7375 8.33717 21.5514 8.00002 22.4001 8.00002C23.2488 8.00002 24.0627 8.33717 24.6628 8.93728C25.263 9.5374 25.6001 10.3513 25.6001 11.2C25.6001 12.0487 25.263 12.8626 24.6628 13.4628C24.0627 14.0629 23.2488 14.4 22.4001 14.4ZM22.4001 16C21.7698 16 21.1456 15.8759 20.5632 15.6346C19.9809 15.3934 19.4517 15.0399 19.006 14.5941C18.5603 14.1484 18.2067 13.6193 17.9655 13.0369C17.7243 12.4545 17.6001 11.8304 17.6001 11.2C17.6001 10.5697 17.7243 9.94551 17.9655 9.36314C18.2067 8.78078 18.5603 8.25163 19.006 7.80591C19.4517 7.36019 19.9809 7.00663 20.5632 6.7654C21.1456 6.52418 21.7698 6.40002 22.4001 6.40002C23.6731 6.40002 24.894 6.90574 25.7942 7.80591C26.6944 8.70609 27.2001 9.92699 27.2001 11.2C27.2001 12.4731 26.6944 13.694 25.7942 14.5941C24.894 15.4943 23.6731 16 22.4001 16ZM15.2001 21.2C14.1392 21.2 13.1218 21.6215 12.3717 22.3716C11.6215 23.1217 11.2001 24.1392 11.2001 25.2V27.28C11.2001 27.4922 11.1158 27.6957 10.9658 27.8457C10.8158 27.9957 10.6123 28.08 10.4001 28.08C10.1879 28.08 9.98444 27.9957 9.83441 27.8457C9.68438 27.6957 9.6001 27.4922 9.6001 27.28V25.2C9.6001 23.7148 10.1901 22.2904 11.2403 21.2402C12.2905 20.19 13.7149 19.6 15.2001 19.6C16.6853 19.6 18.1097 20.19 19.1599 21.2402C20.2101 22.2904 20.8001 23.7148 20.8001 25.2V27.28C20.8001 27.4922 20.7158 27.6957 20.5658 27.8457C20.4158 27.9957 20.2123 28.08 20.0001 28.08C19.7879 28.08 19.5844 27.9957 19.4344 27.8457C19.2844 27.6957 19.2001 27.4922 19.2001 27.28V25.2C19.2001 24.6747 19.0966 24.1546 18.8956 23.6693C18.6946 23.184 18.4 22.743 18.0285 22.3716C17.6571 22.0002 17.2161 21.7055 16.7308 21.5045C16.2455 21.3035 15.7254 21.2 15.2001 21.2Z" fill="#002855"/>
<path fill-rule="evenodd" clip-rule="evenodd" d="M15.1999 18.8C16.0486 18.8 16.8625 18.4629 17.4626 17.8628C18.0628 17.2627 18.3999 16.4487 18.3999 15.6C18.3999 14.7514 18.0628 13.9374 17.4626 13.3373C16.8625 12.7372 16.0486 12.4 15.1999 12.4C14.3512 12.4 13.5373 12.7372 12.9372 13.3373C12.337 13.9374 11.9999 14.7514 11.9999 15.6C11.9999 16.4487 12.337 17.2627 12.9372 17.8628C13.5373 18.4629 14.3512 18.8 15.1999 18.8ZM15.1999 20.4C16.4729 20.4 17.6938 19.8943 18.594 18.9942C19.4942 18.094 19.9999 16.8731 19.9999 15.6C19.9999 14.327 19.4942 13.1061 18.594 12.2059C17.6938 11.3058 16.4729 10.8 15.1999 10.8C13.9269 10.8 12.706 11.3058 11.8058 12.2059C10.9056 13.1061 10.3999 14.327 10.3999 15.6C10.3999 16.8731 10.9056 18.094 11.8058 18.9942C12.706 19.8943 13.9269 20.4 15.1999 20.4Z" fill="#002855"/>
</svg>
