<svg width="29" height="29" viewBox="0 0 29 29" fill="none" xmlns="http://www.w3.org/2000/svg">
<path d="M22.1464 14.5C22.1464 12.4893 20.9173 10.7674 19.1728 10.0424L18.2438 12.274C19.1161 12.6365 19.7278 13.4975 19.7278 14.5057C19.7278 15.5082 19.1161 16.3691 18.2438 16.7373L19.1728 18.9689C20.9173 18.2326 22.1464 16.5107 22.1464 14.5ZM21.0306 5.5791L20.1017 7.81074C22.7241 8.90391 24.5649 11.4867 24.5649 14.5C24.5649 17.5189 22.7241 20.0961 20.1017 21.1893L21.0306 23.4209C24.5253 21.9652 26.9778 18.5215 26.9778 14.5C26.9778 10.4785 24.5253 7.03477 21.0306 5.5791ZM2.81494 8.45645V20.5379H7.64639L16.1028 29V0L7.64639 8.45645H2.81494Z" fill="#002855"/>
</svg>
