<svg width="113" height="32" viewBox="0 0 113 32" fill="none" xmlns="http://www.w3.org/2000/svg">
<path d="M38.08 23.14C37.1467 23.14 36.3067 22.98 35.56 22.66C34.8133 22.3267 34.2267 21.86 33.8 21.26C33.3733 20.66 33.16 19.96 33.16 19.16H35.6C35.6533 19.76 35.8867 20.2533 36.3 20.64C36.7267 21.0267 37.32 21.22 38.08 21.22C38.8667 21.22 39.48 21.0333 39.92 20.66C40.36 20.2733 40.58 19.78 40.58 19.18C40.58 18.7133 40.44 18.3333 40.16 18.04C39.8933 17.7467 39.5533 17.52 39.14 17.36C38.74 17.2 38.18 17.0267 37.46 16.84C36.5533 16.6 35.8133 16.36 35.24 16.12C34.68 15.8667 34.2 15.48 33.8 14.96C33.4 14.44 33.2 13.7467 33.2 12.88C33.2 12.08 33.4 11.38 33.8 10.78C34.2 10.18 34.76 9.72 35.48 9.4C36.2 9.08 37.0333 8.92 37.98 8.92C39.3267 8.92 40.4267 9.26 41.28 9.94C42.1467 10.6067 42.6267 11.5267 42.72 12.7H40.2C40.16 12.1933 39.92 11.76 39.48 11.4C39.04 11.04 38.46 10.86 37.74 10.86C37.0867 10.86 36.5533 11.0267 36.14 11.36C35.7267 11.6933 35.52 12.1733 35.52 12.8C35.52 13.2267 35.6467 13.58 35.9 13.86C36.1667 14.1267 36.5 14.34 36.9 14.5C37.3 14.66 37.8467 14.8333 38.54 15.02C39.46 15.2733 40.2067 15.5267 40.78 15.78C41.3667 16.0333 41.86 16.4267 42.26 16.96C42.6733 17.48 42.88 18.18 42.88 19.06C42.88 19.7667 42.6867 20.4333 42.3 21.06C41.9267 21.6867 41.3733 22.1933 40.64 22.58C39.92 22.9533 39.0667 23.14 38.08 23.14ZM48.2303 13.84V19.94C48.2303 20.3533 48.3236 20.6533 48.5103 20.84C48.7103 21.0133 49.0436 21.1 49.5103 21.1H50.9103V23H49.1103C48.0836 23 47.297 22.76 46.7503 22.28C46.2036 21.8 45.9303 21.02 45.9303 19.94V13.84H44.6303V11.98H45.9303V9.24H48.2303V11.98H50.9103V13.84H48.2303ZM62.9917 11.98V23H60.7117V21.7C60.3517 22.1533 59.8784 22.5133 59.2917 22.78C58.7184 23.0333 58.1051 23.16 57.4517 23.16C56.5851 23.16 55.8051 22.98 55.1117 22.62C54.4317 22.26 53.8917 21.7267 53.4917 21.02C53.1051 20.3133 52.9117 19.46 52.9117 18.46V11.98H55.1717V18.12C55.1717 19.1067 55.4184 19.8667 55.9117 20.4C56.4051 20.92 57.0784 21.18 57.9317 21.18C58.7851 21.18 59.4584 20.92 59.9517 20.4C60.4584 19.8667 60.7117 19.1067 60.7117 18.12V11.98H62.9917ZM65.24 17.44C65.24 16.3333 65.4667 15.3533 65.92 14.5C66.3867 13.6467 67.0133 12.9867 67.8 12.52C68.6 12.04 69.4867 11.8 70.46 11.8C71.18 11.8 71.8867 11.96 72.58 12.28C73.2867 12.5867 73.8467 13 74.26 13.52V8.2H76.56V23H74.26V21.34C73.8867 21.8733 73.3667 22.3133 72.7 22.66C72.0467 23.0067 71.2933 23.18 70.44 23.18C69.48 23.18 68.6 22.94 67.8 22.46C67.0133 21.9667 66.3867 21.2867 65.92 20.42C65.4667 19.54 65.24 18.5467 65.24 17.44ZM74.26 17.48C74.26 16.72 74.1 16.06 73.78 15.5C73.4733 14.94 73.0667 14.5133 72.56 14.22C72.0533 13.9267 71.5067 13.78 70.92 13.78C70.3333 13.78 69.7867 13.9267 69.28 14.22C68.7733 14.5 68.36 14.92 68.04 15.48C67.7333 16.0267 67.58 16.68 67.58 17.44C67.58 18.2 67.7333 18.8667 68.04 19.44C68.36 20.0133 68.7733 20.4533 69.28 20.76C69.8 21.0533 70.3467 21.2 70.92 21.2C71.5067 21.2 72.0533 21.0533 72.56 20.76C73.0667 20.4667 73.4733 20.04 73.78 19.48C74.1 18.9067 74.26 18.24 74.26 17.48ZM89.6547 17.22C89.6547 17.6333 89.628 18.0067 89.5747 18.34H81.1547C81.2214 19.22 81.548 19.9267 82.1347 20.46C82.7214 20.9933 83.4414 21.26 84.2947 21.26C85.5214 21.26 86.388 20.7467 86.8947 19.72H89.3547C89.0214 20.7333 88.4147 21.5667 87.5347 22.22C86.668 22.86 85.588 23.18 84.2947 23.18C83.2414 23.18 82.2947 22.9467 81.4547 22.48C80.628 22 79.9747 21.3333 79.4947 20.48C79.028 19.6133 78.7947 18.6133 78.7947 17.48C78.7947 16.3467 79.0214 15.3533 79.4747 14.5C79.9414 13.6333 80.588 12.9667 81.4147 12.5C82.2547 12.0333 83.2147 11.8 84.2947 11.8C85.3347 11.8 86.2614 12.0267 87.0747 12.48C87.888 12.9333 88.5214 13.5733 88.9747 14.4C89.428 15.2133 89.6547 16.1533 89.6547 17.22ZM87.2747 16.5C87.2614 15.66 86.9614 14.9867 86.3747 14.48C85.788 13.9733 85.0614 13.72 84.1947 13.72C83.408 13.72 82.7347 13.9733 82.1747 14.48C81.6147 14.9733 81.2814 15.6467 81.1747 16.5H87.2747ZM97.4584 11.8C98.3251 11.8 99.0984 11.98 99.7784 12.34C100.472 12.7 101.012 13.2333 101.398 13.94C101.785 14.6467 101.978 15.5 101.978 16.5V23H99.7184V16.84C99.7184 15.8533 99.4718 15.1 98.9784 14.58C98.4851 14.0467 97.8118 13.78 96.9584 13.78C96.1051 13.78 95.4251 14.0467 94.9184 14.58C94.4251 15.1 94.1784 15.8533 94.1784 16.84V23H91.8984V11.98H94.1784V13.24C94.5518 12.7867 95.0251 12.4333 95.5984 12.18C96.1851 11.9267 96.8051 11.8 97.4584 11.8ZM107.547 13.84V19.94C107.547 20.3533 107.64 20.6533 107.827 20.84C108.027 21.0133 108.36 21.1 108.827 21.1H110.227V23H108.427C107.4 23 106.613 22.76 106.067 22.28C105.52 21.8 105.247 21.02 105.247 19.94V13.84H103.947V11.98H105.247V9.24H107.547V11.98H110.227V13.84H107.547Z" fill="#002855"/>
<path d="M12.7333 24L5.1333 16.4L7.0333 14.5L12.7333 20.2L24.9666 7.96667L26.8666 9.86668L12.7333 24Z" fill="black"/>
</svg>
